# xmcd
#
# Track frame offsets: 
#        150
#        13609
#        29725
#        44388
#        59009
#        74606
#        91520
#        105872
#        123441
#        140078
#        155235
#        170494
#        187349
#
# Disc length: 2726 seconds
#
# Revision: 0
# Processed by: cddbd v1.5.2PL0 Copyright (c) Steve Scherf et al.
# Submitted via: ExactAudioCopy v1.3
#
DISCID=bf0aa40d
DTITLE=Randall King - Randall King
DYEAR=2018
DGENRE=Country
TTITLE0=Freightliner
TTITLE1=Takin' Me a Heartbreak
TTITLE2=Mirror, Mirror
TTITLE3=Break It
TTITLE4=Cool Under Pressure
TTITLE5=One Goodbye
TTITLE6=Tuggin' On My Heartstrings
TTITLE7=When He Knows Me
TTITLE8=Dent In It
TTITLE9=Keep Her On the Line
TTITLE10=Her Miss Me Days Are Gone
TTITLE11=One More Won't Hurt
TTITLE12=Reason to Quit
EXTD=
EXTT0=
EXTT1=
EXTT2=
EXTT3=
EXTT4=
EXTT5=
EXTT6=
EXTT7=
EXTT8=
EXTT9=
EXTT10=
EXTT11=
EXTT12=
PLAYORDER=
